<?xml version="1.0" standalone="no"?>
<!DOCTYPE svg PUBLIC "-//W3C//DTD SVG 20010904//EN"
 "http://www.w3.org/TR/2001/REC-SVG-20010904/DTD/svg10.dtd">
<svg version="1.0" xmlns="http://www.w3.org/2000/svg"
 width="1179.000000pt" height="1280.000000pt" viewBox="0 0 1179.000000 1280.000000"
 preserveAspectRatio="xMidYMid meet">
<metadata>
Created by potrace 1.15, written by Peter Selinger 2001-2017
</metadata>
<g transform="translate(0.000000,1280.000000) scale(0.100000,-0.100000)"
fill="#000000" stroke="none">
<path d="M11085 12783 c-117 -42 -202 -116 -468 -405 -261 -284 -462 -388
-748 -388 -260 0 -467 68 -879 289 -242 129 -303 157 -386 176 -111 26 -176
-5 -224 -108 -43 -90 -53 -174 -47 -387 9 -316 57 -531 247 -1100 196 -585
237 -765 227 -995 -3 -66 -12 -141 -20 -166 -47 -144 -127 -235 -270 -303
-101 -49 -162 -64 -372 -96 -973 -145 -1517 -296 -2075 -575 -1054 -528 -1820
-1471 -2283 -2810 -111 -321 -181 -564 -302 -1040 -156 -614 -203 -777 -279
-958 -54 -130 -100 -207 -178 -301 -408 -489 -850 -840 -1403 -1111 -177 -87
-265 -125 -725 -315 -278 -114 -424 -194 -563 -308 -184 -150 -295 -380 -328
-679 -34 -317 32 -509 256 -742 132 -138 284 -244 478 -336 292 -138 546 -163
613 -60 29 44 -6 96 -198 293 -199 203 -232 242 -282 333 -70 127 -84 240 -46
360 58 182 269 366 618 537 260 128 1414 587 1687 670 191 59 240 67 395 67
126 -1 152 -3 200 -23 84 -33 197 -104 282 -176 l78 -66 2095 0 2095 0 0 63
c0 112 -21 291 -41 352 -50 150 -151 219 -380 260 -75 13 -353 34 -521 38
l-88 2 49 120 c210 519 616 1160 864 1367 127 106 167 121 319 119 208 -3 339
-46 436 -143 109 -109 156 -256 172 -532 11 -197 24 -270 71 -401 121 -345
410 -746 744 -1034 176 -151 323 -246 477 -303 69 -26 98 -32 173 -32 100 -1
145 15 203 73 74 75 143 242 143 350 1 148 -29 193 -351 526 -229 236 -355
427 -449 680 -110 296 -152 573 -151 1005 0 334 14 524 57 790 78 485 237 882
486 1217 98 132 164 207 389 446 279 295 371 415 457 591 97 198 131 358 138
646 7 296 -18 499 -100 800 -79 289 -97 398 -97 586 0 134 18 235 60 340 41
103 97 184 228 331 169 189 209 264 219 407 4 71 -2 117 -52 366 -82 420 -121
669 -155 1010 -47 462 -93 594 -232 663 -75 38 -189 46 -263 20z"/>
</g>
</svg>
